<?xml version="1.0" standalone="no"?>
<!DOCTYPE svg PUBLIC "-//W3C//DTD SVG 20010904//EN"
 "http://www.w3.org/TR/2001/REC-SVG-20010904/DTD/svg10.dtd">
<svg version="1.0" xmlns="http://www.w3.org/2000/svg"
 width="465.000000pt" height="465.000000pt" viewBox="0 0 465.000000 465.000000"
 preserveAspectRatio="xMidYMid meet">
<metadata>
Created by potrace 1.11, written by Peter Selinger 2001-2013
</metadata>
<g transform="translate(0.000000,465.000000) scale(0.100000,-0.100000)"
fill="#000000" stroke="none">
<path d="M2045 4639 c-27 -4 -72 -10 -100 -14 -155 -22 -457 -124 -575 -195
-8 -5 -44 -25 -80 -46 -65 -38 -209 -137 -265 -184 -66 -55 -254 -250 -314
-327 -66 -85 -141 -190 -141 -198 0 -2 -16 -29 -35 -59 -108 -169 -243 -500
-290 -713 -39 -175 -41 -186 -50 -258 -4 -32 -9 -68 -11 -80 -19 -92 -27 -629
-11 -745 4 -30 10 -75 13 -100 11 -98 58 -291 100 -419 57 -173 215 -511 379
-811 34 -63 77 -141 93 -172 50 -91 56 -101 80 -133 47 -60 134 -144 165 -159
81 -38 134 -27 276 58 447 266 601 366 625 407 35 59 8 234 -40 260 -18 9
-127 13 -451 14 -320 1 -434 5 -454 14 -56 28 -54 -2 -57 747 -2 618 -4 693
-18 705 -11 9 -48 14 -106 15 -130 2 -123 -13 -124 260 -1 124 1 236 4 250 5
27 51 75 142 147 30 24 61 55 68 70 10 20 13 129 13 466 0 407 2 442 18 462
17 21 25 22 191 23 148 1 177 -1 194 -15 20 -16 21 -28 21 -283 1 -190 4 -269
13 -278 20 -20 -15 -45 573 427 95 77 183 148 194 157 103 87 214 170 233 175
12 3 32 -1 45 -10 17 -11 525 -420 652 -525 11 -9 77 -62 145 -117 69 -55 130
-104 136 -110 7 -5 26 -21 44 -35 18 -14 37 -30 44 -35 6 -6 128 -105 271
-220 143 -114 268 -217 278 -227 40 -41 45 -73 43 -316 -1 -219 -2 -235 -20
-248 -11 -8 -34 -14 -50 -15 -94 -1 -157 -7 -163 -13 -5 -4 -10 -321 -13 -704
-5 -762 -3 -728 -64 -754 -22 -9 -139 -13 -441 -13 -225 -1 -420 -5 -433 -9
-39 -13 -72 -107 -66 -191 5 -82 31 -110 200 -212 40 -24 457 -279 492 -301
70 -43 101 -53 150 -47 130 16 222 122 408 475 306 582 415 845 460 1110 3 14
9 50 14 80 22 117 25 185 25 485 0 272 -6 425 -20 475 -2 8 -6 33 -10 54 -4
33 -25 133 -40 196 -118 511 -382 966 -746 1285 -193 169 -428 304 -684 390
-52 18 -229 62 -280 70 -22 3 -56 8 -75 11 -54 9 -519 12 -575 3z m-439 -487
c32 -21 43 -86 23 -125 -34 -63 -90 -73 -144 -26 -28 25 -35 38 -35 69 0 52
44 90 103 90 23 0 47 -4 53 -8z m1523 -21 c17 -16 32 -36 32 -45 1 -9 2 -22 3
-28 4 -21 -25 -65 -50 -78 -100 -54 -193 69 -113 149 41 41 85 42 128 2z
m1056 -2106 c45 -58 31 -120 -32 -150 -27 -13 -40 -14 -66 -6 -35 12 -67 55
-67 91 0 35 30 81 61 94 43 18 76 9 104 -29z m-3568 5 c21 -13 43 -50 43 -71
0 -27 -34 -79 -61 -92 -40 -19 -73 -11 -109 25 -34 34 -38 66 -13 108 28 47
90 61 140 30z m678 -1395 c24 -23 28 -33 28 -70 0 -34 -4 -43 -28 -69 -40 -43
-122 -30 -151 25 -23 45 -17 78 17 110 41 38 99 40 134 4z m2208 -20 c15 -14
28 -32 28 -40 1 -8 2 -21 3 -27 7 -42 -52 -98 -101 -98 -57 0 -98 59 -86 124
13 64 105 88 156 41z"/>
</g>
</svg>
